<mxfile host="app.diagrams.net" modified="2023-07-29T12:17:02.215Z" agent="Mozilla/5.0 (Windows NT 10.0; Win64; x64) AppleWebKit/537.36 (KHTML, like Gecko) Chrome/115.0.0.0 Safari/537.36 Edg/115.0.1901.183" etag="DbNlIr_YstF4Au0s9K_E" version="21.6.3" type="github">
  <diagram name="第 1 页" id="PF-WP4IITFFx9WLVhS49">
    <mxGraphModel dx="1050" dy="549" grid="1" gridSize="10" guides="1" tooltips="1" connect="1" arrows="1" fold="1" page="1" pageScale="1" pageWidth="1169" pageHeight="827" math="0" shadow="0">
      <root>
        <mxCell id="0" />
        <mxCell id="1" parent="0" />
        <mxCell id="cSiJAu-NFIXsrIoSFPES-1" value="Strategic Gradient" style="rounded=0;whiteSpace=wrap;html=1;" vertex="1" parent="1">
          <mxGeometry x="380" y="80" width="110" height="30" as="geometry" />
        </mxCell>
        <mxCell id="cSiJAu-NFIXsrIoSFPES-2" value="Master Network of Actor" style="rounded=1;whiteSpace=wrap;html=1;" vertex="1" parent="1">
          <mxGeometry x="370" y="140" width="135" height="50" as="geometry" />
        </mxCell>
        <mxCell id="cSiJAu-NFIXsrIoSFPES-3" value="Target Network of Actor" style="rounded=1;whiteSpace=wrap;html=1;" vertex="1" parent="1">
          <mxGeometry x="370" y="220" width="135" height="50" as="geometry" />
        </mxCell>
      </root>
    </mxGraphModel>
  </diagram>
</mxfile>
